<svg width="18" height="12" viewBox="0 0 18 12" fill="none" xmlns="http://www.w3.org/2000/svg">
<path d="M14.4143 4.1719C13.9538 4.17008 13.5135 4.25631 13.1083 4.41456L10.9236 0.839632C10.863 0.740534 10.7785 0.658769 10.6782 0.602072C10.5778 0.545375 10.4649 0.515621 10.35 0.515625H8.55003C8.30149 0.515625 8.10003 0.720232 8.10003 0.972656V1.42969C8.10003 1.68211 8.30149 1.88672 8.55003 1.88672H9.97454L10.3935 2.57227H7.20006V2.11523C7.20006 1.86281 6.9986 1.6582 6.75006 1.6582H4.29028C3.91225 1.6582 3.59343 1.97238 3.6002 2.35623C3.60673 2.72883 3.90609 3.0293 4.27506 3.0293H5.64548L4.81813 4.38668C4.44033 4.24871 4.03333 4.17293 3.60898 4.17188C1.6339 4.16702 0.0115941 5.80039 6.282e-05 7.8063C-0.0116091 9.83561 1.60468 11.4844 3.60006 11.4844C5.27749 11.4844 6.68701 10.3191 7.08663 8.74219H8.55006C8.66503 8.74219 8.7781 8.71236 8.87854 8.65554C8.97898 8.59871 9.06346 8.51678 9.12398 8.4175L11.5417 4.45095L11.9618 5.13841C11.2459 5.80819 10.7978 6.7689 10.8 7.83595C10.8041 9.80213 12.4284 11.4651 14.3643 11.4842C16.3501 11.5037 17.9694 9.89019 17.9996 7.88517C18.0301 5.85878 16.4098 4.17979 14.4143 4.1719ZM5.25235 6.27913C5.52592 6.57989 5.72128 6.955 5.80478 7.37109H4.5868L5.25235 6.27913ZM3.60006 10.1133C2.35941 10.1133 1.35006 9.08816 1.35006 7.82812C1.35006 6.56809 2.35941 5.54297 3.60006 5.54297C3.76513 5.54297 3.92592 5.56162 4.08097 5.59607L2.80114 7.69581C2.52324 8.15167 2.84662 8.74219 3.37506 8.74219H5.66162C5.31372 9.54842 4.52082 10.1133 3.60006 10.1133ZM8.17403 7.37109H7.17211C7.06073 6.464 6.62209 5.66025 5.98008 5.08519L6.67607 3.94336H10.2633L8.17403 7.37109ZM14.2788 10.11C13.1246 10.0482 12.1961 9.0905 12.1518 7.91756C12.1289 7.31425 12.3383 6.76019 12.6955 6.339L13.9452 8.38382C14.0763 8.59828 14.3537 8.66421 14.5649 8.5311L14.9472 8.2901C15.1584 8.15699 15.2233 7.87523 15.0922 7.66077L13.8416 5.61432C14.024 5.56687 14.2117 5.5429 14.4001 5.543C15.6407 5.543 16.6501 6.56812 16.6501 7.82815C16.65 9.12898 15.5742 10.1795 14.2788 10.11Z" fill="white"/>
</svg>
