<svg width="35" height="32" viewBox="0 0 35 32" fill="none" xmlns="http://www.w3.org/2000/svg">
<path d="M6.73485 31.3216C10.4544 31.3216 13.4697 28.1525 13.4697 24.2433C13.4697 20.334 10.4544 17.1649 6.73485 17.1649C3.0153 17.1649 0 20.334 0 24.2433C0 28.1525 3.0153 31.3216 6.73485 31.3216Z" fill="#F5DFC6"/>
<path d="M28.0618 31.3216C31.7814 31.3216 34.7967 28.1525 34.7967 24.2433C34.7967 20.334 31.7814 17.1649 28.0618 17.1649C24.3423 17.1649 21.327 20.334 21.327 24.2433C21.327 28.1525 24.3423 31.3216 28.0618 31.3216Z" fill="#F5DFC6"/>
<path fill-rule="evenodd" clip-rule="evenodd" d="M20.4716 6.31353C20.9534 6.39216 21.3818 6.67971 21.6523 7.10614L24.129 11.0108H27.6878C28.6487 11.0108 29.4277 11.8295 29.4277 12.8393C29.4277 13.8492 28.6487 14.6679 27.6878 14.6679H23.1979C22.6162 14.6679 22.073 14.3624 21.7503 13.8537L19.8097 10.7943L15.3262 14.5639L18.4416 17.8382C18.7679 18.1811 18.9512 18.6462 18.9512 19.1312V25.4231C18.9512 26.433 18.1723 27.2516 17.2114 27.2516C16.2505 27.2516 15.4715 26.433 15.4715 25.4231V19.8886L11.4912 15.7053C11.1413 15.3375 10.9569 14.8305 10.9843 14.3112C11.0117 13.7919 11.2482 13.3094 11.6346 12.9844L19.1178 6.69258C19.4986 6.37242 19.9897 6.2349 20.4716 6.31353Z" fill="#F5DFC6"/>
<path d="M24.6944 4.97454C25.521 4.97454 26.191 4.2703 26.191 3.40158C26.191 2.53285 25.521 1.82861 24.6944 1.82861C23.8678 1.82861 23.1978 2.53285 23.1978 3.40158C23.1978 4.2703 23.8678 4.97454 24.6944 4.97454Z" fill="#F5DFC6"/>
<path fill-rule="evenodd" clip-rule="evenodd" d="M24.6944 3.65714C24.8287 3.65714 24.9376 3.5427 24.9376 3.40154C24.9376 3.26037 24.8287 3.14593 24.6944 3.14593C24.5601 3.14593 24.4512 3.26037 24.4512 3.40154C24.4512 3.5427 24.5601 3.65714 24.6944 3.65714ZM21.4579 3.40154C21.4579 1.52292 22.907 0 24.6944 0C26.4819 0 27.9309 1.52292 27.9309 3.40154C27.9309 5.28015 26.4819 6.80307 24.6944 6.80307C22.907 6.80307 21.4579 5.28015 21.4579 3.40154Z" fill="#F5DFC6"/>
<path fill-rule="evenodd" clip-rule="evenodd" d="M7.85736 13.3604C7.85736 13.8653 7.46788 14.2747 6.98744 14.2747L3.1149 14.2747C2.63446 14.2747 2.24498 13.8653 2.24498 13.3604C2.24498 12.8554 2.63446 12.4461 3.1149 12.4461L6.98744 12.4461C7.46788 12.4461 7.85736 12.8554 7.85736 13.3604Z" fill="#F5DFC6"/>
<path fill-rule="evenodd" clip-rule="evenodd" d="M11.2247 9.82119C11.2247 10.3261 10.8353 10.7355 10.3548 10.7355L6.48227 10.7355C6.00183 10.7355 5.61235 10.3261 5.61235 9.82119C5.61235 9.31624 6.00183 8.9069 6.48227 8.9069L10.3548 8.9069C10.8353 8.9069 11.2247 9.31624 11.2247 9.82119Z" fill="#F5DFC6"/>
<path fill-rule="evenodd" clip-rule="evenodd" d="M7.85736 6.282C7.85736 6.78695 7.46788 7.19629 6.98744 7.19629L3.1149 7.19629C2.63446 7.19629 2.24498 6.78695 2.24498 6.282C2.24498 5.77706 2.63446 5.36772 3.1149 5.36772L6.98744 5.36772C7.46788 5.36772 7.85736 5.77706 7.85736 6.282Z" fill="#F5DFC6"/>
</svg>
